#tb 0: 1/1000000
#media_type 0: subtitle
#codec_id 0: hdmv_pgs_subtitle
0,     935200,    1000000,        0,     5489, 0x955012f8
0,    2935200,    3000000,        0,    11055, 0x426628f8
0,    4935200,    5000000,        0,     6698, 0x088d42b8
0,    7000000,    7000000,        0,       17, 0x0dcd0177
0,    8935200,    9000000,        0,     5798, 0xf3f28c01
0,   12000000,   12000000,        0,       17, 0x0ddd0179
